  <?xml version="1.0" encoding="utf-8"?>

  <svg version="1.1" id="Calque_1" xmlns="http://www.w3.org/2000/svg" xmlns:xlink="http://www.w3.org/1999/xlink" x="0px" y="0px"
     viewBox="0 0 319 564" style="enable-background:new 0 0 319 564; height: 100%; width: 100%; transform: rotate(0deg);" xml:space="preserve">
    <style type="text/css">
      .st0{fill:#FFFFFF;}
      .st1{font-family:'Arial-BoldMT';}
      .st2{font-size:30px;}
      .st3{fill-rule:evenodd;clip-rule:evenodd;fill:#FFFFFF;}
      .st4{fill-rule:evenodd;clip-rule:evenodd;fill:#FFFFFF;}
      .st5{fill:#131212;}
    </style>
    <g id="Page-1">
      <g id="Mobile-Copy-2" transform="translate(-27.000000, -116.000000)">
        <g id="Group" transform="translate(27.000000, 109.000000)">
          <ellipse id="Oval-Copy-2" class="st3" cx="145" cy="354" rx="61" ry="58"/>
          <circle id="Oval-Copy" class="st4" cx="232.5" cy="248.5" r="85.5"/>
          <circle id="Oval" class="st4" cx="133.5" cy="115.5" r="100.5"/>
          <circle id="Oval-Copy-3" class="st4" cx="284.5" cy="313.5" r="25.5"/>
          <circle id="Oval-Copy-7" class="st3" cx="256.5" cy="337.5" r="25.5"/>
          <circle id="Oval-Copy-4" class="st3" cx="42.5" cy="186.5" r="25.5"/>
          <text transform="matrix(1 0 0 1 34 198)" class="st5 st1 st2">1</text>
          <text transform="matrix(1 0 0 1 248 348)" class="st5 st1 st2">2</text>
          <circle id="Oval-Copy-5" class="st3" cx="166.5" cy="409.5" r="25.5"/>
          <circle id="Oval-Copy-9" class="st3" cx="254.5" cy="443.5" r="25.5"/>
          <circle id="Oval-Copy-14" class="st3" cx="279.5" cy="408.5" r="25.5"/>
          <circle id="Oval-Copy-10" class="st3" cx="161.5" cy="510.5" r="25.5"/>
          <circle id="Oval-Copy-13" class="st3" cx="63.5" cy="489.5" r="25.5"/>
          <circle id="Oval-Copy-11" class="st3" cx="202.5" cy="530.5" r="25.5"/>
          <circle id="Oval-Copy-12" class="st3" cx="166.5" cy="544.5" r="25.5"/>
          <circle id="Oval-Copy-8" class="st3" cx="110.5" cy="407.5" r="25.5"/>
          <circle id="Oval-Copy-6" class="st3" cx="138.5" cy="429.5" r="25.5"/>
        </g>
      </g>
    </g>
  </svg>
