<?xml version="1.0" encoding="UTF-8"?>
<svg width="236px" height="139px" viewBox="0 0 236 139" version="1.1" xmlns="http://www.w3.org/2000/svg" xmlns:xlink="http://www.w3.org/1999/xlink">
    <!-- Generator: Sketch 52.6 (67491) - http://www.bohemiancoding.com/sketch -->
    <title>Group 2</title>
    <desc>Created with Sketch.</desc>
    <g id="Page-1" stroke="none" stroke-width="1" fill="none" fill-rule="evenodd">
        <g id="Mobile" transform="translate(-69.000000, -555.000000)">
            <g id="Group-2" transform="translate(69.000000, 551.000000)">
                <g id="noun_Boat_2575100">
                    <g id="noun_Man-standing-side-view_1926279" transform="translate(110.500000, 71.000000) scale(-1, 1) translate(-110.500000, -71.000000) translate(82.000000, 0.000000)" fill="#000000">
                        <g id="Group">
                            <ellipse id="Oval" transform="translate(36.096352, 20.256249) rotate(-76.890715) translate(-36.096352, -20.256249) " cx="36.0963519" cy="20.2562486" rx="16.0577716" ry="17.2602371"></ellipse>
                            <path d="M12.5854459,59.8552893 C12.5892973,53.1394711 14.115973,48.9467934 14.4217703,48.1756364 C15.5532973,45.3305289 18.5180676,43.4200496 21.7994189,43.4200496 C22.7214324,43.4200496 23.6303514,43.5693058 24.5030676,43.8649752 C28.5292703,45.2239174 30.6367297,49.3661322 29.2032568,53.0968264 C29.1901622,53.1337851 29.1685946,53.1991736 29.1408649,53.2887273 C29.0800135,53.4834711 28.9598514,53.8992562 28.8258243,54.5147603 C28.5862703,55.636314 28.2989595,57.4799835 28.2989595,59.8631074 C28.320527,62.8723967 28.736473,65.8895041 29.5414054,68.9094545 C30.4757432,63.6556364 31.6527162,58.6882479 32.5431486,54.4941488 C34.7530541,47.4201157 31.8614595,38.9537355 25.2872027,37.4419835 C18.7114054,35.9288099 9.17931081,39.2245289 5.301,49.6312397 C0.0585405405,63.9697851 -1.06759459,73.3018512 0.924324324,89.0910248 C2.55190541,96.8182314 6.95554054,99.8602149 11.8182568,100.997405 C13.7801351,106.959124 16.2265135,116.770942 16.2095676,128.543702 C16.2064865,137.939736 14.6852027,118.566777 10.2276486,129.674992 C8.38054054,134.276347 10.9255135,139.387306 15.9145541,141.090959 C17.0168108,141.467653 18.146027,141.64605 19.257527,141.64605 C23.1697297,141.64605 26.8485405,139.42995 28.2866351,135.845669 C33.6446351,122.496479 35.4670946,139.705934 35.4647838,128.544413 C35.4509189,118.170397 33.906527,109.192992 32.1356757,102.29238 C15.1273378,84.3930083 12.5423108,68.2001322 12.5854459,59.8552893 Z" id="Path"></path>
                            <path d="M26.6043649,59.8631074 C26.6043649,57.3854545 26.8962973,55.4586281 27.1643514,54.2070083 C27.2999189,53.5815537 27.4285541,53.1259669 27.5125135,52.856595 C27.5541081,52.7229752 27.5833784,52.6341322 27.5980135,52.5950413 C27.6003243,52.5872231 27.6026351,52.5815372 27.6034054,52.579405 C27.6049459,52.5772727 27.6057162,52.5758512 27.6064865,52.5744298 L27.6057162,52.5744298 C28.7349324,49.6390579 27.0957973,46.4051736 23.9192027,45.3326612 C20.7241216,44.2516198 17.1855,45.7655041 16.0131486,48.7150909 L16.0131486,48.7136694 C15.8221216,49.1969752 14.2831216,53.2610083 14.2792703,59.8645289 C14.2245811,70.2847438 18.3370541,87.0099669 36.8327838,104.695405 C38.0405676,105.85676 39.6565946,106.440992 41.2757027,106.440992 C42.8116216,106.440992 44.3490811,105.915041 45.5445405,104.855322 C47.9993919,102.679736 48.0756486,99.0805289 45.7201622,96.8160992 C29.3126351,80.9878347 26.6605946,67.6869752 26.6043649,59.8631074 Z" id="Path"></path>
                        </g>
                    </g>
                    <path d="M201.295179,87.6160284 L201.295179,77.2315337 C201.295179,73.4080701 204.402756,70.3085373 208.236143,70.3085373 C212.06953,70.3085373 215.177107,73.4080701 215.177107,77.2315337 L215.177107,87.6160284 L229.059036,87.6160284 C232.892423,87.6160284 236,90.7155612 236,94.5390249 L236,122.231011 C236,133.701405 226.677272,143 215.177107,143 L83.2987864,143 C41.3694868,143 13.2920439,127.724678 0.541135122,97.2017166 C-1.36383334,92.6416219 1.99525672,87.6160284 6.94817958,87.6160284 L72.4279141,87.6160284 L91.2288866,56.3621886 C93.2011477,53.083596 97.4647079,52.020466 100.751813,53.9876216 C104.038915,55.9547772 105.104804,60.2073005 103.132543,63.4858966 L88.6168873,87.6160284 L131.885536,87.6160284 L131.885536,73.7700355 C131.885536,62.2996412 141.208265,53.0010462 152.708429,53.0010462 C164.208593,53.0010462 173.531322,62.2996412 173.531322,73.7700355 L173.531322,87.6160284 L201.295179,87.6160284 Z M159.649393,73.7700355 C159.649393,69.9465719 156.541816,66.8470391 152.708429,66.8470391 C148.875042,66.8470391 145.767465,69.9465719 145.767465,73.7700355 L145.767465,87.6160284 L159.649393,87.6160284 L159.649393,73.7700355 Z" id="Shape" fill="#D0021B" fill-rule="nonzero"></path>
                </g>
                <g id="noun_bucket_945737" transform="translate(149.000000, 14.000000)" fill="#F8E71C" fill-rule="nonzero">
                    <path d="M77.2860043,3.44641612 L77.2860043,0 L4.71299887,0 L4.71299887,3.44641612 C2.10629581,3.52249086 0,5.97301951 0,9.00448252 L0,18.8158183 C0,29.274942 2.88681149,39.1911687 8.34842757,47.4936889 C8.8817301,48.3051528 9.4539089,49.0797319 10.0310718,49.8473952 L11.3458869,75.761217 C11.4924205,78.6428358 13.6545386,81 16.1505938,81 L65.8484093,81 C68.3444646,81 70.5065827,78.6428358 70.6531163,75.761217 L71.9689282,49.8462425 C72.5460911,49.0785793 73.1172731,48.3040001 73.6515724,47.4936889 C79.1121917,39.1923214 82,29.2760947 82,18.8158183 L82,9.00448252 C81.9990032,5.97417216 79.8917105,3.5236435 77.2860043,3.44641612 Z M1.46234546,18.816971 L1.46234546,9.00563517 C1.46234546,6.90666401 2.912729,5.21573008 4.7139957,5.13965534 L4.7139957,9.35949796 L7.97661103,9.35949796 L9.88055093,46.8954648 C4.58341134,39.0309507 1.46234546,29.2150043 1.46234546,18.816971 Z M80.5366577,18.816971 C80.5366577,29.2150043 77.4155918,39.0321034 72.1184522,46.8943122 L74.023389,9.35949796 L77.2860043,9.35949796 L77.2860043,5.13965534 C79.0862742,5.21457743 80.5366577,6.90666401 80.5366577,9.00563517 L80.5366577,18.816971 Z" id="Shape"></path>
                </g>
            </g>
        </g>
    </g>
</svg>