<?xml version="1.0" encoding="UTF-8"?>
<svg width="137px" height="75px" viewBox="0 0 137 75" version="1.1" xmlns="http://www.w3.org/2000/svg" xmlns:xlink="http://www.w3.org/1999/xlink">
    <!-- Generator: Sketch 52.6 (67491) - http://www.bohemiancoding.com/sketch -->
    <title>Path</title>
    <desc>Created with Sketch.</desc>
    <g id="Page-1" stroke="none" stroke-width="1" fill="none" fill-rule="evenodd">
        <g id="Mobile" transform="translate(-39.000000, -48.000000)" fill="#FFFFFF" fill-rule="nonzero">
            <g id="noun_Rain_27216" transform="translate(39.000000, 48.000000)">
                <g id="Group">
                    <path d="M122.673714,35.882977 C122.114298,36.3616897 121.530417,36.819931 120.9025,37.2435287 C120.827476,37.2939195 120.74919,37.3301379 120.674167,37.378954 C118.834452,38.5836092 116.856107,39.4418276 114.82231,39.970931 C114.13894,40.1472989 113.450679,40.2905977 112.757524,40.3961034 C113.856786,39.9189655 114.929952,39.3473448 115.95419,38.656046 C116.614726,38.2104023 117.223071,37.7206667 117.805321,37.2120345 C117.901548,37.1285747 117.997774,37.0451149 118.090738,36.9600805 C118.663202,36.4388506 119.20631,35.8971494 119.702119,35.323954 C119.705381,35.3208046 119.708643,35.3176552 119.711905,35.3145057 L119.710274,35.3145057 C120.015262,34.9617701 120.312095,34.6043103 120.589357,34.2342529 C119.253607,15.3424253 103.020738,0.417298851 83.1785714,0.417298851 C70.3348214,0.417298851 59.0029643,6.67363218 52.2410357,16.2085172 C53.2783214,17.9595977 54.0513929,19.8917701 54.4754405,21.9798391 C54.4754405,21.9798391 54.4754405,21.9782644 54.4754405,21.9782644 C54.4835952,22.0223563 54.4999048,22.0648736 54.5080595,22.1105402 C55.0788929,25.0300575 54.90275,27.9133563 54.1459881,30.5998161 C54.1459881,29.432954 54.0465,28.2503448 53.8149048,27.0614368 C53.668119,26.3118736 53.4740357,25.5827816 53.2424405,24.8741609 C53.1282738,24.5245747 52.9782262,24.1938851 52.8444881,23.8537471 C52.709119,23.5136092 52.5884286,23.1655977 52.435119,22.834908 C52.2410357,22.4160345 52.0127024,22.0192069 51.7892619,21.6192299 C51.6620476,21.3908966 51.54625,21.1562644 51.410881,20.9342299 C51.1597143,20.5248046 50.8808214,20.139 50.6002976,19.750046 C50.4910238,19.5988736 50.3964286,19.4351034 50.2822619,19.2870805 C50.279,19.2918046 50.277369,19.2965287 50.2741071,19.3012529 C50.1599405,19.1516552 50.0620833,18.9894598 49.9446548,18.8445862 C46.7284167,17.169092 43.05225,16.2148161 39.1444881,16.2148161 C27.5549405,16.2148161 18.0040833,24.5875632 16.5313333,35.4247356 C7.16966667,36.8451264 0,45.1281149 0,54.5937126 C0,65.063977 8.76310714,74.0114943 19.5714286,74.0114943 L32.5130357,74.0114943 L35.8809524,67.9031839 L39.2880119,74.0114943 L55.452381,74.0114943 C55.452381,74.0114943 55.452381,74.3343103 55.452381,74.3327356 C55.452381,72.0352299 56.099869,69.8888966 57.2121786,68.0338851 L68.5,47.5626207 L79.9166667,68.0338851 C79.9166667,68.0338851 81.547619,72.0352299 81.547619,74.3327356 C81.547619,74.3343103 81.547619,74.0114943 81.547619,74.0114943 L95.1465,74.0114943 L101.119048,63.179046 L107.160095,74.0114943 L117.428571,74.0114943 C128.236893,74.0114943 137,65.063977 137,54.5937126 C137,45.8855517 130.931226,38.1064713 122.673714,35.882977 Z" id="Path"></path>
                </g>
            </g>
        </g>
    </g>
</svg>