<?xml version="1.0" encoding="UTF-8"?>
<svg width="52px" height="32px" viewBox="0 0 52 32" version="1.1" xmlns="http://www.w3.org/2000/svg" xmlns:xlink="http://www.w3.org/1999/xlink">
    <!-- Generator: Sketch 52.6 (67491) - http://www.bohemiancoding.com/sketch -->
    <title>Group 3</title>
    <desc>Created with Sketch.</desc>
    <g id="Page-1" stroke="none" stroke-width="1" fill="none" fill-rule="evenodd">
        <g id="Group-3" transform="translate(0.000000, 1.000000)">
            <g id="Group-2">
                <path d="M21,19 C20.9364945,18.1493143 20.7685663,17.3096735 20.5,16.5 C18.4,9.4 11,0 11,0 C11,0 3.6,9.4 1.5,16.6 C1.23929683,17.3774899 1.07146443,18.1830854 1,19 L1,19.8 C0.973346655,22.4787255 2.01197243,25.0583116 3.8873644,26.9712114 C5.76275636,28.8841112 8.3212719,29.9736092 11,30 C13.6787281,29.9736092 16.2372436,28.8841112 18.1126356,26.9712114 C19.9880276,25.0583116 21.0266533,22.4787255 21,19.8 L21,19 Z" id="Path" fill="#CDEBF2"></path>
                <path d="M14,25 C11.3212719,24.9736092 8.76275636,23.8841112 6.8873644,21.9712114 C5.01197243,20.0583116 3.97334666,17.4787255 4,14.8 L4,14 C4.06350553,13.1493143 4.2314337,12.3096735 4.5,11.5 C5.18058404,9.34455379 6.08554239,7.26650126 7.2,5.3 C5,8.6 2.6,12.9 1.5,16.6 C1.23929683,17.3774899 1.07146443,18.1830854 1,19 L1,19.8 C0.973346655,22.4787255 2.01197243,25.0583116 3.8873644,26.9712114 C5.76275636,28.8841112 8.3212719,29.9736092 11,30 C15.5955365,29.9964478 19.5970723,26.8612239 20.7,22.4 C18.8764985,24.0838466 16.4820006,25.0130548 14,25 Z" id="Path" fill="#000064" opacity="0.1"></path>
                <ellipse id="Oval" fill="#FFFFFF" transform="translate(14.986021, 17.982219) rotate(-19.400000) translate(-14.986021, -17.982219) " cx="14.986021" cy="17.9822194" rx="3" ry="4"></ellipse>
                <path d="M21,19 C20.9364945,18.1493143 20.7685663,17.3096735 20.5,16.5 C18.4,9.4 11,0 11,0 C11,0 3.6,9.4 1.5,16.6 C1.23929683,17.3774899 1.07146443,18.1830854 1,19 L1,19.8 C0.973346655,22.4787255 2.01197243,25.0583116 3.8873644,26.9712114 C5.76275636,28.8841112 8.3212719,29.9736092 11,30 C13.6787281,29.9736092 16.2372436,28.8841112 18.1126356,26.9712114 C19.9880276,25.0583116 21.0266533,22.4787255 21,19.8 L21,19 Z" id="Path" stroke="#BBD0D5" stroke-width="2" stroke-linecap="round" stroke-linejoin="round"></path>
            </g>
            <g id="Group" transform="translate(31.000000, 0.000000)">
                <path d="M20,19 C19.9364945,18.1493143 19.7685663,17.3096735 19.5,16.5 C17.4,9.4 10,-1.77635684e-15 10,-1.77635684e-15 C10,-1.77635684e-15 2.6,9.4 0.5,16.6 C0.238383106,17.3772421 0.0705277987,18.1829476 0,19 L0,19.8 C0,25.3228475 4.4771525,29.8 10,29.8 C15.5228475,29.8 20,25.3228475 20,19.8 L20,19 Z" id="Path" fill="#CDEBF2" fill-rule="nonzero"></path>
                <ellipse id="Oval" fill="#FFFFFF" transform="translate(13.999143, 18.006984) rotate(-19.400000) translate(-13.999143, -18.006984) " cx="13.9991426" cy="18.0069839" rx="3" ry="4"></ellipse>
                <path d="M20,19 C19.9364945,18.1493143 19.7685663,17.3096735 19.5,16.5 C17.4,9.4 10,-1.77635684e-15 10,-1.77635684e-15 C10,-1.77635684e-15 2.6,9.4 0.5,16.6 C0.238383106,17.3772421 0.0705277987,18.1829476 0,19 L0,19.8 C0,25.3228475 4.4771525,29.8 10,29.8 C15.5228475,29.8 20,25.3228475 20,19.8 L20,19 Z" id="Path" stroke="#BBD0D5" stroke-width="2" stroke-linecap="round" stroke-linejoin="round"></path>
            </g>
        </g>
    </g>
</svg>