<?xml version="1.0" encoding="UTF-8"?>
<svg width="1125px" height="733px" viewBox="0 0 1125 733" version="1.1" xmlns="http://www.w3.org/2000/svg" xmlns:xlink="http://www.w3.org/1999/xlink">
    <!-- Generator: Sketch 55 (78076) - https://sketchapp.com -->
    <title>Rectangle</title>
    <desc>Created with Sketch.</desc>
    <defs>
        <linearGradient x1="113.686846%" y1="77.3084543%" x2="24.3016095%" y2="37.0216312%" id="linearGradient-1">
            <stop stop-color="#060165" offset="0%"></stop>
            <stop stop-color="#1515AC" offset="22.1046242%"></stop>
            <stop stop-color="#00D4FF" offset="100%"></stop>
        </linearGradient>
        <path d="M177.204591,18.887407 C272.656244,20.0216533 319.762495,49 375,49 C425.360824,49 473.224197,18.887407 562.5,18.887407 C663.310837,18.887407 663.310837,49 750,49 C815.956988,49 873.063047,16.5550662 928.829747,10.5727871 C1001.8673,2.73780654 1067.25738,5.21354416 1125,18 L1125,739 L-1.8189894e-12,739 L-1.8189894e-12,49 C70.485115,40.6853802 102.525519,18 177.204591,18.887407 Z" id="path-2"></path>
    </defs>
    <g id="Page-1" stroke="none" stroke-width="1" fill="none" fill-rule="evenodd">
        <g id="Mobile" transform="translate(0.000000, -79.000000)">
            <g id="background" transform="translate(0.000000, 73.000000)">
                <g id="Group-4">
                    <mask id="mask-3" fill="white">
                        <use xlink:href="#path-2"></use>
                    </mask>
                    <use id="Rectangle" fill="url(#linearGradient-1)" transform="translate(562.500000, 372.553756) scale(-1, 1) translate(-562.500000, -372.553756) " xlink:href="#path-2"></use>
                </g>
            </g>
        </g>
    </g>
</svg>